<svg width="40" height="40" viewBox="0 0 40 40" fill="none" xmlns="http://www.w3.org/2000/svg">
<g filter="url(#filter0_i_3051_43)">
<rect width="40" height="40" rx="20" fill="#00ADEC"/>
</g>
<path d="M26.0959 27.2733C25.835 27.5541 25.5334 27.8641 25.1959 28.1825C24.8342 28.525 24.4325 28.8775 23.9984 29.2183C23.91 29.2875 23.82 29.3566 23.7292 29.4241C23.1442 29.8616 22.5067 30.2708 21.8309 30.6008L22.4759 27.7583C22.4759 27.7583 22.6659 25.8166 20.4475 24.8275C20.355 24.7858 20.2575 24.7458 20.155 24.7075L20.6667 24.2925L24.4959 21.1866L25.4384 22.855L25.55 23.0516L26.2875 24.3575V24.3583L26.4542 24.6533C26.9167 25.4741 26.77 26.5466 26.0959 27.2733Z" fill="white"/>
<path opacity="0.22" d="M23.9983 29.2192C23.91 29.2884 23.82 29.3575 23.7292 29.425C23.1442 29.8625 22.5067 30.2717 21.8308 30.6017L22.4758 27.7592C22.4758 27.7592 22.6658 25.8175 20.4475 24.8284L20.6675 24.2942L24.4967 21.1884L25.4392 22.8567L25.5508 23.0534C24.7992 23.305 23.0792 24.0525 22.815 25.675C22.53 27.4284 24.1125 28.015 23.9983 29.2192Z" fill="#452C87"/>
<path opacity="0.22" d="M23.7292 29.4259C23.1442 29.8634 22.5067 30.2725 21.8309 30.6025L22.4759 27.76C22.4759 27.76 22.6659 25.8184 20.4475 24.8292C20.355 24.7875 20.2575 24.7475 20.155 24.7092L20.6667 24.2942L24.4959 21.1884L25.4384 22.8567C24.4384 23.2175 22.6475 24.1084 22.37 25.9117C22.1084 27.6134 23.31 28.42 23.7292 29.4259Z" fill="#452C87"/>
<path opacity="0.11" d="M26.096 27.2734C25.8352 27.5542 25.5335 27.8642 25.196 28.1825C25.196 28.1825 25.196 28.1825 25.1969 28.1817C27.0685 26.0025 26.3094 24.4025 26.2885 24.3592L26.4552 24.6542C26.9169 25.4742 26.7702 26.5467 26.096 27.2734Z" fill="white"/>
<path d="M14.4784 13.5683L14.7775 13.7275H14.7784L16.1017 14.4342L16.3009 14.5408L17.9909 15.4433L14.9775 19.345L14.575 19.8667C14.535 19.765 14.4917 19.6692 14.4484 19.5775C13.4059 17.3833 11.47 17.62 11.47 17.62L8.64502 18.3333C8.95835 17.6508 9.35252 17.0025 9.77669 16.4075C9.84169 16.315 9.90919 16.2242 9.97585 16.1342C10.3059 15.6925 10.6492 15.2817 10.9825 14.9125C11.2934 14.5675 11.5959 14.2592 11.87 13.9908C12.5792 13.2975 13.6467 13.1258 14.4784 13.5683Z" fill="white"/>
<path opacity="0.22" d="M13.546 17.2308C15.1618 16.9283 15.8676 15.1916 16.101 14.4341L16.3001 14.5408L17.9901 15.4433L14.9768 19.345L14.4476 19.5775C13.4051 17.3833 11.4693 17.62 11.4693 17.62L8.64429 18.3333C8.95762 17.6508 9.35179 17.0025 9.77595 16.4075C9.84095 16.315 9.90845 16.2241 9.97512 16.1341C11.1743 15.99 11.7985 17.5575 13.546 17.2308Z" fill="#452C87"/>
<path opacity="0.22" d="M13.3186 17.6817C15.1144 17.3617 15.9627 15.5484 16.2994 14.5417L17.9894 15.4442L14.9752 19.3459L14.5736 19.8675C14.5336 19.7659 14.4902 19.67 14.4469 19.5784C13.4044 17.3842 11.4686 17.6209 11.4686 17.6209L8.64355 18.3342C8.95689 17.6517 9.35105 17.0034 9.77522 16.4084C10.7886 16.8009 11.6236 17.9834 13.3186 17.6817Z" fill="#452C87"/>
<path opacity="0.11" d="M14.4785 13.5675L14.7776 13.7267C14.7335 13.7067 13.1168 12.9859 10.9818 14.9092C10.981 14.91 10.981 14.91 10.981 14.91C11.2918 14.565 11.5943 14.2567 11.8685 13.9884C12.5793 13.2975 13.6468 13.1259 14.4785 13.5675Z" fill="white"/>
<path d="M13.2068 27.7275C10.9485 30.9283 9.33845 31.285 9.33845 31.285C9.56095 31.0658 10.056 30.2308 10.056 30.2308C8.62095 31.4608 7.14429 31.5067 7.14429 31.5067C7.43179 30.6142 7.84845 29.8092 8.30845 29.1042C9.65095 27.0483 11.3643 25.85 11.3643 25.85L10.6851 25.4733C11.0943 25.1217 11.7501 24.86 12.4085 24.6692C13.471 24.3625 14.5326 24.245 14.5326 24.245L15.676 25.1067C14.5618 27.6467 13.4468 28.7433 13.4468 28.7433L13.2068 27.7275Z" fill="#EDB20C"/>
<path d="M14.7601 24.2725C14.7601 24.2725 12.6743 24.5034 11.8743 25.195L12.3843 25.4775C12.3843 25.4775 10.0684 27.0967 9.22095 29.7192C9.22095 29.7192 10.3284 29.685 11.4051 28.7625C11.4051 28.7625 11.0334 29.3884 10.8668 29.5534C10.8668 29.5534 12.0734 29.2859 13.7684 26.8859L13.9476 27.6484C13.9476 27.6484 14.7843 26.8259 15.6193 24.9217L14.7601 24.2725Z" fill="#F0754C"/>
<path opacity="0.11" d="M13.2068 27.7275C10.9485 30.9283 9.33845 31.285 9.33845 31.285C9.56095 31.0658 10.056 30.2308 10.056 30.2308C8.62095 31.4608 7.14429 31.5067 7.14429 31.5067C7.43179 30.6142 7.84845 29.8092 8.30845 29.1042C9.99345 31.1683 13.5218 27.2208 13.5218 27.2208C13.5218 27.2208 13.446 28.7442 13.9426 27.65C14.4393 26.5558 12.406 24.6717 12.406 24.6717C13.4685 24.365 14.5301 24.2475 14.5301 24.2475L15.6751 25.1083C14.561 27.6483 13.446 28.745 13.446 28.745L13.2068 27.7275Z" fill="#F15A24"/>
<path d="M12.8691 23.8399L14.4562 22.2796L17.1901 25.0603L15.603 26.6206L12.8691 23.8399Z" fill="#F0B30D"/>
<path d="M26.9758 20.445C26.6917 20.7542 26.3958 21.06 26.0883 21.3625C23.2283 24.1733 19.285 25.225 16.7308 25.7117L16.2817 25.255L16.1392 25.11L13.8225 22.7542C14.07 21.565 14.4042 20.0317 14.9817 18.4508C15.2217 17.7933 15.5033 17.1258 15.8383 16.4717C16.4233 15.3308 17.1692 14.2275 18.1383 13.2758C22.8375 8.65751 28.4258 6.72334 30.6217 8.95751C30.7558 9.09334 30.8733 9.24251 30.9767 9.40167C30.9783 9.40417 30.98 9.40667 30.9817 9.40917C31.0208 9.47001 31.0567 9.53251 31.0908 9.59584V9.59667C31.0925 9.60001 31.0942 9.60251 31.0958 9.60584C31.7458 10.8233 31.6067 12.6117 30.8108 14.6083C30.6292 15.0642 30.4133 15.5308 30.165 16.0042C29.9167 16.4775 29.635 16.9567 29.3225 17.4392C28.67 18.4417 27.8833 19.4583 26.9758 20.445Z" fill="white"/>
<path d="M27.9084 14.575C27.5093 14.9675 27.0418 15.235 26.5684 15.3717C25.7659 15.6033 24.9459 15.4592 24.4068 14.91C24.0251 14.5217 23.8484 13.9967 23.8643 13.4392C23.8843 12.7442 24.2043 12.0017 24.8018 11.4133C25.8776 10.355 27.4468 10.205 28.3043 11.0783C29.1609 11.9517 28.9834 13.5167 27.9084 14.575Z" fill="#F0B30D"/>
<path opacity="0.22" d="M27.7193 14.0758C26.8918 14.8892 25.6777 14.9958 25.0077 14.3142C24.5235 13.8225 24.456 13.0533 24.7668 12.3583C24.8868 12.0908 25.0627 11.8342 25.2927 11.6067C26.1202 10.7933 27.3343 10.6867 28.0043 11.3683C28.456 11.8283 28.5452 12.5292 28.3027 13.1858C28.1843 13.5033 27.9885 13.8108 27.7193 14.0758Z" fill="#8B1236"/>
<path d="M27.6217 14.1717C26.7942 14.985 25.58 15.0917 24.91 14.41C24.4258 13.9183 24.3583 13.1492 24.6692 12.4542C24.7892 12.1867 24.965 11.93 25.195 11.7025C26.0225 10.8892 27.2367 10.7825 27.9067 11.4642C28.3583 11.9242 28.4475 12.625 28.205 13.2817C28.0867 13.5983 27.8917 13.9067 27.6217 14.1717Z" fill="#00D4F2"/>
<path opacity="0.33" d="M23.5191 18.7825C23.602 18.7825 23.6691 18.7153 23.6691 18.6325C23.6691 18.5496 23.602 18.4825 23.5191 18.4825C23.4363 18.4825 23.3691 18.5496 23.3691 18.6325C23.3691 18.7153 23.4363 18.7825 23.5191 18.7825Z" fill="white"/>
<path opacity="0.33" d="M22.8092 19.4808C22.892 19.4808 22.9592 19.4136 22.9592 19.3308C22.9592 19.2479 22.892 19.1808 22.8092 19.1808C22.7263 19.1808 22.6592 19.2479 22.6592 19.3308C22.6592 19.4136 22.7263 19.4808 22.8092 19.4808Z" fill="white"/>
<path opacity="0.33" d="M28.2035 13.2817C26.9826 10.9517 24.6685 12.4542 24.6685 12.4542C24.7885 12.1867 24.9643 11.93 25.1943 11.7025C26.0218 10.8892 27.236 10.7825 27.906 11.4642C28.3585 11.9242 28.4476 12.625 28.2035 13.2817Z" fill="#19A4E9"/>
<path opacity="0.44" d="M25.7169 14.3558C25.6919 14.2375 25.751 14.1183 25.8585 14.0625C26.1594 13.9075 26.9327 13.5533 27.1785 13.8742C27.4552 14.2358 25.836 14.8992 25.7169 14.3558Z" fill="white"/>
<path opacity="0.44" d="M25.3551 14.4608C25.4504 14.4608 25.5276 14.3836 25.5276 14.2883C25.5276 14.1931 25.4504 14.1158 25.3551 14.1158C25.2598 14.1158 25.1826 14.1931 25.1826 14.2883C25.1826 14.3836 25.2598 14.4608 25.3551 14.4608Z" fill="white"/>
<path d="M26.2077 11.2967C26.2077 11.2967 26.8202 11.0075 27.136 11.3309C27.4535 11.6525 25.7277 11.5667 26.2077 11.2967Z" fill="white"/>
<path d="M25.9034 11.5358C25.9485 11.5358 25.9851 11.4993 25.9851 11.4542C25.9851 11.4091 25.9485 11.3725 25.9034 11.3725C25.8583 11.3725 25.8218 11.4091 25.8218 11.4542C25.8218 11.4993 25.8583 11.5358 25.9034 11.5358Z" fill="white"/>
<path d="M27.3442 11.5958C27.4197 11.5958 27.4809 11.5347 27.4809 11.4592C27.4809 11.3837 27.4197 11.3225 27.3442 11.3225C27.2687 11.3225 27.2075 11.3837 27.2075 11.4592C27.2075 11.5347 27.2687 11.5958 27.3442 11.5958Z" fill="white"/>
<path opacity="0.22" d="M26.5677 15.3716C25.7652 15.6033 24.9452 15.4591 24.406 14.91C24.0244 14.5216 23.8477 13.9966 23.8635 13.4391C23.9602 13.8908 24.4544 15.4883 26.5677 15.3716Z" fill="#8B1236"/>
<path d="M23.5617 19.1725C23.1626 19.565 22.6951 19.8325 22.2217 19.9692C21.4192 20.2009 20.5992 20.0567 20.0601 19.5075C19.6784 19.1192 19.5017 18.5942 19.5176 18.0367C19.5376 17.3417 19.8576 16.5992 20.4551 16.0109C21.5309 14.9525 23.1001 14.8025 23.9576 15.6759C24.8142 16.5484 24.6367 18.1142 23.5617 19.1725Z" fill="#F0B30D"/>
<path opacity="0.22" d="M23.3727 18.6725C22.5452 19.4859 21.331 19.5925 20.661 18.9109C20.1768 18.4192 20.1093 17.65 20.4202 16.955C20.5402 16.6875 20.716 16.4309 20.946 16.2034C21.7735 15.39 22.9877 15.2834 23.6577 15.965C24.1093 16.425 24.1985 17.1259 23.956 17.7825C23.8368 18.1009 23.6418 18.4075 23.3727 18.6725Z" fill="#8B1236"/>
<path d="M23.275 18.7683C22.4475 19.5817 21.2333 19.6883 20.5633 19.0067C20.0792 18.515 20.0117 17.7458 20.3225 17.0508C20.4425 16.7833 20.6183 16.5267 20.8483 16.2992C21.6758 15.4858 22.89 15.3792 23.56 16.0608C24.0117 16.5208 24.1008 17.2217 23.8583 17.8783C23.74 18.1958 23.545 18.5033 23.275 18.7683Z" fill="#00D4F2"/>
<path opacity="0.33" d="M23.8568 17.8783C22.6359 15.5483 20.3218 17.0508 20.3218 17.0508C20.4418 16.7833 20.6176 16.5267 20.8476 16.2992C21.6751 15.4858 22.8893 15.3792 23.5593 16.0608C24.0109 16.5208 24.1009 17.2217 23.8568 17.8783Z" fill="#19A4E9"/>
<path opacity="0.44" d="M21.3702 18.9533C21.3452 18.835 21.4044 18.7158 21.5119 18.66C21.8127 18.505 22.5869 18.1508 22.8319 18.4716C23.1085 18.8333 21.4894 19.4966 21.3702 18.9533Z" fill="white"/>
<path opacity="0.44" d="M21.0084 19.0575C21.1037 19.0575 21.1809 18.9803 21.1809 18.885C21.1809 18.7898 21.1037 18.7125 21.0084 18.7125C20.9132 18.7125 20.8359 18.7898 20.8359 18.885C20.8359 18.9803 20.9132 19.0575 21.0084 19.0575Z" fill="white"/>
<path d="M21.861 15.8933C21.861 15.8933 22.4735 15.6041 22.7894 15.9275C23.1069 16.2491 21.381 16.1633 21.861 15.8933Z" fill="white"/>
<path d="M21.556 16.1334C21.6011 16.1334 21.6377 16.0968 21.6377 16.0517C21.6377 16.0066 21.6011 15.97 21.556 15.97C21.5109 15.97 21.4744 16.0066 21.4744 16.0517C21.4744 16.0968 21.5109 16.1334 21.556 16.1334Z" fill="white"/>
<path d="M22.9975 16.1933C23.073 16.1933 23.1342 16.1321 23.1342 16.0566C23.1342 15.9812 23.073 15.92 22.9975 15.92C22.922 15.92 22.8608 15.9812 22.8608 16.0566C22.8608 16.1321 22.922 16.1933 22.9975 16.1933Z" fill="white"/>
<path opacity="0.22" d="M22.221 19.9683C21.4185 20.2 20.5985 20.0558 20.0593 19.5067C19.6777 19.1183 19.501 18.5933 19.5168 18.0358C19.6135 18.4883 20.1077 20.085 22.221 19.9683Z" fill="#8B1236"/>
<path d="M20.5 20L17.8218 22.4283L16.301 23.8983L15.4775 24.4666L15 24L15.1118 23.73L15.9627 22.7833L19.545 19.0658L20.5 20Z" fill="white"/>
<defs>
<filter id="filter0_i_3051_43" x="0" y="0" width="40" height="40" filterUnits="userSpaceOnUse" color-interpolation-filters="sRGB">
<feFlood flood-opacity="0" result="BackgroundImageFix"/>
<feBlend mode="normal" in="SourceGraphic" in2="BackgroundImageFix" result="shape"/>
<feColorMatrix in="SourceAlpha" type="matrix" values="0 0 0 0 0 0 0 0 0 0 0 0 0 0 0 0 0 0 127 0" result="hardAlpha"/>
<feOffset dx="-1" dy="1"/>
<feComposite in2="hardAlpha" operator="arithmetic" k2="-1" k3="1"/>
<feColorMatrix type="matrix" values="0 0 0 0 1 0 0 0 0 1 0 0 0 0 1 0 0 0 0.25 0"/>
<feBlend mode="normal" in2="shape" result="effect1_innerShadow_3051_43"/>
</filter>
</defs>
</svg>
