<svg width="40" height="41" viewBox="0 0 40 41" fill="none" xmlns="http://www.w3.org/2000/svg">
<g filter="url(#filter0_i_3026_477)">
<rect y="1" width="40" height="40" rx="8" fill="black"/>
</g>
<path fill-rule="evenodd" clip-rule="evenodd" d="M30.75 13.5C30.75 12.771 30.46 12.071 29.945 11.555C29.429 11.04 28.729 10.75 28 10.75C24.729 10.75 15.271 10.75 12 10.75C11.271 10.75 10.571 11.04 10.055 11.555C9.54 12.071 9.25 12.771 9.25 13.5V24.5C9.25 25.229 9.54 25.929 10.055 26.445C10.571 26.96 11.271 27.25 12 27.25H16.625L19.4 30.95C19.542 31.139 19.764 31.25 20 31.25C20.236 31.25 20.458 31.139 20.6 30.95L23.375 27.25H28C28.729 27.25 29.429 26.96 29.945 26.445C30.46 25.929 30.75 25.229 30.75 24.5C30.75 22.056 30.75 15.944 30.75 13.5ZM23.1 16.25L23.244 15.093C23.296 14.682 23.004 14.307 22.593 14.256C22.182 14.204 21.807 14.496 21.756 14.907L21.588 16.25H19.1L19.244 15.093C19.296 14.682 19.004 14.307 18.593 14.256C18.182 14.204 17.807 14.496 17.756 14.907L17.588 16.25H16C15.586 16.25 15.25 16.586 15.25 17C15.25 17.414 15.586 17.75 16 17.75H17.4L17.088 20.25H16C15.586 20.25 15.25 20.586 15.25 21C15.25 21.414 15.586 21.75 16 21.75H16.9L16.756 22.907C16.704 23.318 16.996 23.693 17.407 23.744C17.818 23.796 18.193 23.504 18.244 23.093L18.412 21.75H20.9L20.756 22.907C20.704 23.318 20.996 23.693 21.407 23.744C21.818 23.796 22.193 23.504 22.244 23.093L22.412 21.75H24C24.414 21.75 24.75 21.414 24.75 21C24.75 20.586 24.414 20.25 24 20.25H22.6L22.912 17.75H24C24.414 17.75 24.75 17.414 24.75 17C24.75 16.586 24.414 16.25 24 16.25H23.1ZM21.088 20.25H18.6L18.912 17.75H21.4L21.088 20.25Z" fill="white"/>
<defs>
<filter id="filter0_i_3026_477" x="0" y="1" width="40" height="40" filterUnits="userSpaceOnUse" color-interpolation-filters="sRGB">
<feFlood flood-opacity="0" result="BackgroundImageFix"/>
<feBlend mode="normal" in="SourceGraphic" in2="BackgroundImageFix" result="shape"/>
<feColorMatrix in="SourceAlpha" type="matrix" values="0 0 0 0 0 0 0 0 0 0 0 0 0 0 0 0 0 0 127 0" result="hardAlpha"/>
<feOffset dx="-1" dy="1"/>
<feComposite in2="hardAlpha" operator="arithmetic" k2="-1" k3="1"/>
<feColorMatrix type="matrix" values="0 0 0 0 1 0 0 0 0 1 0 0 0 0 1 0 0 0 0.25 0"/>
<feBlend mode="normal" in2="shape" result="effect1_innerShadow_3026_477"/>
</filter>
</defs>
</svg>
