<svg width="1485" height="550" viewBox="0 0 1908 555" fill="none" xmlns="http://www.w3.org/2000/svg">
<path d="M1392.67 105.432L1080.2 71.8853L1620.59 60.7031L1567.33 80.807C1556.83 84.7697 1547.2 90.7317 1538.98 98.3623L1197.84 414.805L1734.55 485.625H806.564L928.12 463.526C942.261 460.955 955.541 454.911 966.766 445.936L1392.67 105.432Z" fill="#18187C" fill-opacity="0.5"/>
<path fill-rule="evenodd" clip-rule="evenodd" d="M1670.88 50.9887L1570.39 88.92C1560.94 92.4864 1552.28 97.8522 1544.87 104.72L1217.25 408.62L1866.55 494.297H710.382L926.568 454.994C939.295 452.68 951.247 447.24 961.35 439.163L1370.81 111.806L944.354 66.0226L1670.88 50.9887ZM1216.05 77.748L1414.53 99.057L972.182 452.709C959.834 462.581 945.226 469.23 929.671 472.058L902.746 476.953H1602.54L1178.42 420.989L1533.08 92.0049C1542.13 83.6111 1552.72 77.053 1564.26 72.694L1570.3 70.4175L1216.05 77.748Z" fill="url(#paint0_linear_296_3)"/>
<g filter="url(#filter0_i_296_3)">
<path d="M1389.63 348.298C1385.13 347.983 1388.86 347.983 1385.13 347.983C1366.3 347.983 1335.91 347.39 1318.5 346.602C1317.43 346.348 1316.96 345.858 1316.82 344.893C1313.8 323.908 1314.59 314.854 1311.5 293.896C1309.38 279.528 1307.19 265.19 1305.02 250.84C1304.97 250.477 1304.84 250.144 1304.5 249.85C1303.74 256.062 1302.99 262.273 1302.22 268.484C1299.44 291 1296.67 313.516 1293.88 336.038C1293.52 338.976 1294.59 341.245 1296.19 343.285C1299.87 347.98 1295.71 344.041 1300.99 347.39C1301.51 347.717 1299.22 346.933 1299.94 347.39C1284.48 347.39 1285.29 347.39 1270.28 347.39C1255.27 347.39 1240.79 346.752 1225.24 346.752C1226.1 346.565 1226.54 346.492 1226.98 346.368C1231.41 345.146 1235.88 344.178 1240.25 342.61C1244.78 340.989 1246.9 338.351 1247.44 334.593C1249.48 320.327 1254.08 298.903 1256.13 284.635C1259.7 259.756 1263.31 234.871 1266.92 209.986C1268.26 200.752 1269.64 191.512 1271.03 182.272C1272.3 173.873 1273.57 165.471 1274.88 157.063C1275.29 154.455 1274.52 152.413 1272.85 150.758C1270.21 148.135 1266.7 146.371 1263.02 144.78C1262.18 144.42 1261.46 143.927 1260.69 143.494C1260.77 143.37 1260.85 143.243 1260.94 143.119C1261.43 143.079 1261.93 143.007 1262.4 143.01C1280.64 143.119 1298.86 143.258 1317.12 143.315C1318.71 143.321 1319.17 143.854 1319.36 145.049C1321.35 157.926 1323.38 170.787 1325.47 183.625C1328.69 203.381 1331.97 223.12 1335.23 242.861C1335.29 243.267 1335.42 243.648 1335.8 243.969C1336.11 241.264 1336.42 238.556 1336.72 235.851C1338.55 219.359 1340.36 202.873 1342.23 186.372C1343.23 177.586 1344.22 168.796 1345.48 159.965C1346.15 155.333 1344.39 152.111 1340.83 149.829C1338.18 148.123 1335.2 146.725 1332.4 145.164C1331.91 144.892 1331.55 144.486 1331.44 143.86C1355 144.06 1378.57 144.259 1402.76 144.462C1401.26 145.512 1400.22 146.344 1399.08 147.025C1396.11 148.804 1393.03 150.425 1390.11 152.28C1387.17 154.15 1385.76 156.47 1385.5 159.196C1382.33 193.161 1379.08 227.141 1375.86 261.117C1373.02 291.176 1373.58 296.482 1371.95 326.353C1371.66 329.39 1373.7 334.384 1375.2 336.653C1378.75 342.041 1383.37 343.56 1388.88 347.39C1389.38 347.732 1389.34 347.644 1389.84 347.983C1389.77 348.086 1389.7 348.192 1389.63 348.298Z" fill="url(#paint1_linear_296_3)"/>
</g>
<g filter="url(#filter1_i_296_3)">
<path d="M199.473 487.048C202.136 485.538 205.263 483.835 208.305 482.017C217.389 476.582 226.329 470.991 233.93 463.915C238.008 460.122 240.831 455.788 242.24 450.631C255.116 403.512 258.787 385.44 271.749 338.336C285.827 287.166 299.94 236.006 314.036 184.836C315.788 178.472 317.455 172.093 319.202 165.729C320.347 161.562 319.316 157.981 316.006 154.779C311.956 150.865 307.162 147.89 301.864 145.485C300.106 144.687 298.348 143.889 295.948 142.798C297.237 142.531 297.804 142.319 298.371 142.309C340.823 141.571 383.276 140.763 425.729 140.182C436.777 140.031 447.608 141.713 457.815 145.647C477.22 153.127 487.214 166.381 488.291 184.912C488.915 195.58 486.762 205.989 484.345 216.394C481.206 229.885 478.629 243.482 475.375 256.947C469.384 281.747 453.152 300.238 429.309 313.875C408.317 325.876 385.384 333.164 360.561 335.897C356.116 336.387 351.706 337.079 347.255 337.488C345.148 337.68 344.97 338.917 344.632 340.235C340.497 356.464 337.041 365.807 332.9 382.035C326.514 407.032 322.375 418.687 316.006 443.688C314.425 449.891 316.155 453.714 322.134 457.341C327.747 460.745 326.353 461.096 332.9 462.374C288.694 466.821 250.734 478.154 199.473 487.048ZM359.444 282.035C365.973 281.413 371.924 280.893 377.858 280.267C391.719 278.802 400.717 269.226 402.99 258.594C405.499 246.876 408.603 235.259 411.37 223.581C412.733 217.834 414.4 212.096 415.076 206.277C416.095 197.565 410.82 192.716 400.888 192.65C396.031 192.62 391.169 193.115 386.312 193.074C383.242 193.049 381.879 193.903 381.191 196.691C376.174 216.945 370.945 237.153 365.773 257.376C363.728 265.392 361.66 273.403 359.444 282.035Z" fill="url(#paint2_linear_296_3)"/>
</g>
<g filter="url(#filter2_i_296_3)">
<path d="M1190.4 142.842C1204.63 142.533 1215.74 143.182 1225.68 146.383C1241.5 151.472 1250.08 161.839 1250.42 177.693C1250.61 186.084 1249.52 194.821 1248.77 203.446C1245.57 240.218 1242.28 277.01 1239.06 313.792C1238.46 320.569 1236.94 327.355 1232.93 334.193C1228.43 341.841 1221.65 347.454 1212.78 350.812C1202.43 354.731 1183.18 357.587 1173.3 357.525C1155.14 357.41 1148.99 358.053 1134.37 351.493C1124.16 346.918 1116.97 343.326 1113.98 333.129C1112.04 326.524 1109.43 314.94 1111.92 301.586C1113.51 291.045 1114.79 282.056 1116.25 271.536C1117.92 259.481 1119.59 247.431 1121.3 235.371C1123.14 222.338 1124.84 209.322 1126.98 196.248C1128.1 189.346 1129.47 182.341 1131.72 175.378C1135.97 162.161 1146.76 153.416 1161.3 147.981C1172.13 143.939 1182.67 143.076 1190.4 142.842ZM1190.11 175.314C1189.25 175.34 1188.39 175.327 1187.52 175.394C1181.76 175.857 1177.55 179.041 1176.04 184.122C1175.71 185.247 1175.51 186.377 1175.36 187.485C1174.83 191.59 1174.33 195.689 1173.82 199.784C1171.72 216.88 1169.57 233.981 1167.52 251.067C1165.41 268.571 1163.39 286.064 1161.35 303.558C1160.9 307.369 1160.19 311.231 1161.49 314.616C1163.7 320.347 1172.78 322.074 1180.02 320.983C1185.25 320.19 1188.36 317.396 1189.4 312.818C1189.78 311.131 1190.01 309.448 1190.18 307.788C1191.46 295.719 1192.63 283.671 1193.96 271.596C1197.05 243.418 1200.25 215.223 1203.3 187.054C1203.54 184.95 1203.4 182.781 1202.73 180.982C1200.95 176.22 1196.01 175.096 1190.11 175.314Z" fill="url(#paint3_linear_296_3)"/>
</g>
<g filter="url(#filter3_i_296_3)">
<path d="M628.205 417.673C596.309 422.009 566.814 421.141 541.768 428.188C541.692 428.077 541.611 427.966 541.536 427.849C542.296 427.349 543.045 426.832 543.81 426.345C550.675 421.962 557.039 416.839 562.104 409.861C565.801 404.769 567.531 399.184 566.814 392.268C564.405 369.152 562.853 360.771 560.687 337.624C559.157 321.307 557.562 304.996 556.117 288.667C554.857 274.377 553.773 260.07 552.599 245.769C552.491 244.474 552.286 243.192 551.613 241.799C535.371 286.934 519.13 332.076 502.738 377.643C516.657 376.102 530.236 374.604 543.81 373.1C543.842 373.266 543.874 373.433 543.907 373.599C539.693 376.429 535.409 379.129 531.276 382.106C511.246 396.525 504.869 394.335 492.75 417.853C490.616 421.995 488.983 426.464 486.951 430.681C486.429 431.765 485.362 433.066 484.408 433.233C466.138 433.233 443.836 440.349 425.66 443.436C424.97 443.553 424.27 443.577 423.16 443.688C425.676 436.71 422.216 446.666 424.604 440.07C438.539 401.629 451.007 365.888 464.926 327.434C478.608 289.647 492.262 251.847 505.912 214.041C511.586 198.315 517.072 182.497 522.924 166.852C524.971 161.372 524.255 156.841 520.477 153.309C516.904 149.974 512.815 147.354 508.919 144.469C507.922 143.73 506.806 143.193 505.745 142.571C505.804 142.269 505.869 141.973 505.928 141.671C544.92 141.171 583.912 140.672 622.899 140.173C623.028 140.53 623.157 140.888 623.287 141.245C622.554 141.843 621.864 142.546 621.077 143.021C616.96 145.505 612.795 147.891 608.689 150.399C607.676 151.022 606.824 151.996 605.908 152.816C602.885 155.516 601.614 158.58 602.093 163.394C605.391 196.62 608.166 229.908 611.475 263.134C615.015 298.702 618.884 334.227 622.759 369.747C624.903 389.386 625.613 394.834 627.925 414.449C628.038 415.472 628.102 416.489 628.205 417.673Z" fill="url(#paint4_linear_296_3)"/>
</g>
<g filter="url(#filter4_i_296_3)">
<path d="M962.812 379.752C936.371 379.956 905.744 387.321 883.47 390.288C883.403 390.193 883.331 390.098 883.264 389.998C883.939 389.57 884.606 389.126 885.286 388.708C891.391 384.952 897.051 380.561 901.556 374.58C904.843 370.215 906.382 365.428 905.744 359.5C903.602 339.686 901.561 329.257 899.634 309.417C898.273 295.431 896.855 281.45 895.57 267.453C894.449 255.205 893.486 242.942 892.441 230.683C892.345 229.574 892.163 228.475 891.564 227.281C877.12 265.968 862.676 304.661 848.098 343.719C860.477 342.398 872.553 341.114 884.625 339.825C884.653 339.967 884.682 340.11 884.711 340.253C880.963 342.678 877.154 344.992 873.478 347.544C855.665 359.903 847.8 364.801 837.023 384.959C835.125 388.509 833.673 392.34 831.866 395.954C831.866 395.954 830.452 397.999 829.604 398.142C813.356 398.142 795.835 399.431 779.551 400.112C778.937 400.213 778.314 400.234 777.327 400.329C779.565 394.348 776.488 402.881 778.611 397.227C791.004 364.278 802.093 333.643 814.471 300.683C826.639 268.293 838.782 235.893 850.921 203.488C855.967 190.009 860.846 176.451 866.05 163.041C867.871 158.344 867.234 154.46 863.874 151.432C860.697 148.574 857.06 146.328 853.595 143.856C852.708 143.221 851.716 142.762 850.772 142.228C850.825 141.969 850.883 141.716 850.935 141.457C885.612 141.029 920.289 140.601 954.961 140.173C955.076 140.479 955.191 140.786 955.306 141.092C954.654 141.605 954.041 142.207 953.341 142.614C949.68 144.743 945.975 146.788 942.323 148.938C941.422 149.472 940.665 150.307 939.851 151.01C937.162 153.324 936.031 155.95 936.458 160.077C939.391 188.556 941.859 217.088 944.801 245.568C947.95 276.055 950.221 296.173 953.667 326.618C955.574 343.452 960.507 360.176 962.563 376.989C962.663 377.866 962.721 378.738 962.812 379.752Z" fill="url(#paint5_linear_296_3)"/>
</g>
<g filter="url(#filter5_i_296_3)">
<path d="M827.874 399.582C825.515 399.582 823.157 399.498 820.789 399.593C796.323 399.593 769.37 403.716 743.388 406.044C741.291 406.133 740.486 405.603 740.043 403.716C732.376 370.927 724.808 326.424 717.079 293.646C716.743 292.228 716.743 290.693 716.225 289.354C715.842 288.36 715.046 287.037 714.118 286.853C712.015 286.434 712.102 288.321 711.888 289.504C710.01 299.881 708.233 310.264 706.331 320.635C702.904 339.346 698.581 372.896 694.939 391.591C694.03 396.274 695.363 399.891 699.343 401.928C704.713 404.669 710.567 406.69 716.225 409.001C716.909 409.28 717.575 410.449 718.24 411.192C678.323 411.859 637.521 413.337 598.715 417.673C598.641 417.561 598.573 417.449 598.5 417.338C599.499 416.886 600.514 416.467 601.493 415.976C608.428 412.515 615.467 409.222 622.253 405.493C626.48 403.171 628.616 399.47 629.541 394.943C638.07 353.145 647.661 296.99 656.28 255.197C659.906 237.631 663.407 220.053 667.015 202.487C669.768 189.09 672.544 175.693 675.428 162.313C676.166 158.874 675.618 155.804 672.929 153.8C668.778 150.702 664.231 148.04 659.797 145.26C658.637 144.534 657.3 144.038 655.329 143.1C656.795 142.815 657.43 142.592 658.044 142.592C693.458 142.441 728.893 142.084 764.275 142.279C779.051 142.363 792.97 145.282 804.952 153.064C816.598 160.627 821.927 171.3 821.511 184.686C821.266 192.545 819.998 200.466 818.991 208.353C817.905 216.899 816.817 225.451 815.324 233.975C811.828 253.93 799.124 267.154 778.567 274.388C775.205 275.572 771.797 276.61 768.071 277.821C769.874 282.851 771.506 287.83 773.414 292.697C783.53 318.531 793.224 352.743 803.164 378.649C806.873 388.306 814.07 394.156 824.333 397.304C825.602 397.695 826.848 398.147 828.102 398.571C828.028 398.906 827.955 399.241 827.874 399.582ZM719.211 249.208C727.14 248.555 734.797 249.772 742.426 246.931C748.376 244.72 752.383 240.835 753.426 234.996C755.77 221.845 758.06 208.688 760.063 195.52C761.1 188.716 757.9 184.407 750.67 183.446C744.939 182.687 738.93 183.028 733.029 183.039C732.458 183.039 731.359 184.094 731.221 184.73C729.882 190.91 728.631 197.1 727.483 203.296C724.834 217.642 722.262 231.993 719.661 246.339C719.518 247.159 719.405 247.974 719.211 249.208Z" fill="url(#paint6_linear_296_3)"/>
</g>
<g filter="url(#filter6_i_296_3)">
<path d="M1037.13 238.87C1038.61 238.81 1039.3 238.767 1040 238.758C1061.21 238.483 1082.4 238.247 1103.63 237.889C1105.94 237.848 1106.49 238.508 1106.37 240.48C1105.13 261.365 1104.02 282.226 1102.84 303.099C1102.39 311.04 1102.22 318.954 1101.23 326.951C1099.22 343.035 1091.38 354.778 1074.65 362.031C1069.66 364.191 1064.39 365.811 1059.21 367.048C1047.3 369.897 1035.62 370.404 1024.09 370.205C1011.67 369.99 999.571 368.911 988.28 365.828C980.837 363.798 973.808 361.18 967.815 357.138C956.033 349.2 951.611 337.522 953.206 323.249C956.415 294.448 960.098 265.594 963.577 236.763C964.87 226.029 966.004 215.316 967.468 204.566C968.383 197.839 969.409 191.07 971.013 184.316C975.432 165.701 990.601 153.296 1010.18 147.885C1031.49 141.997 1052.22 140.618 1071.25 145.83C1090 150.961 1103.16 161.339 1109 178.156C1110.77 183.267 1109.96 188.875 1109.49 194.456C1108.83 202.342 1108.4 210.196 1107.87 218.063C1107.81 218.91 1107.7 219.764 1107.61 220.679C1084.65 221.092 1061.97 221.494 1038.81 221.911C1041.69 220.081 1044.17 218.647 1046.48 217.008C1051.49 213.46 1054.1 209.251 1054.16 204.057C1054.2 199.895 1054.86 195.612 1055.39 191.367C1056.41 183.289 1052.65 179.027 1043.69 178.637C1040.97 178.517 1038.1 178.701 1035.28 179.156C1028.78 180.202 1024.58 183.976 1023.67 189.665C1022.9 194.481 1022.48 199.277 1022 204.071C1019.53 228.999 1017.06 253.921 1014.63 278.842C1013.25 293.059 1011.9 307.274 1010.62 321.477C1009.98 328.513 1013.32 332.739 1020.86 333.796C1024.56 334.313 1028.59 334.303 1032.55 333.888C1039.19 333.196 1043.27 329.504 1044.09 323.645C1044.94 317.474 1045.52 311.322 1046.05 305.183C1047.16 292.115 1047.84 279.093 1049.27 265.988C1050.47 255.008 1046.57 246.721 1038.65 240.19C1038.29 239.917 1037.97 239.608 1037.13 238.87Z" fill="url(#paint7_linear_296_3)"/>
</g>
<defs>
<filter id="filter0_i_296_3" x="1225.24" y="143.01" width="177.517" height="205.288" filterUnits="userSpaceOnUse" color-interpolation-filters="sRGB">
<feFlood flood-opacity="0" result="BackgroundImageFix"/>
<feBlend mode="normal" in="SourceGraphic" in2="BackgroundImageFix" result="shape"/>
<feColorMatrix in="SourceAlpha" type="matrix" values="0 0 0 0 0 0 0 0 0 0 0 0 0 0 0 0 0 0 127 0" result="hardAlpha"/>
<feOffset dy="1"/>
<feComposite in2="hardAlpha" operator="arithmetic" k2="-1" k3="1"/>
<feColorMatrix type="matrix" values="0 0 0 0 0.925844 0 0 0 0 0.383333 0 0 0 0 1 0 0 0 1 0"/>
<feBlend mode="normal" in2="shape" result="effect1_innerShadow_296_3"/>
</filter>
<filter id="filter1_i_296_3" x="199.473" y="140.173" width="288.927" height="346.875" filterUnits="userSpaceOnUse" color-interpolation-filters="sRGB">
<feFlood flood-opacity="0" result="BackgroundImageFix"/>
<feBlend mode="normal" in="SourceGraphic" in2="BackgroundImageFix" result="shape"/>
<feColorMatrix in="SourceAlpha" type="matrix" values="0 0 0 0 0 0 0 0 0 0 0 0 0 0 0 0 0 0 127 0" result="hardAlpha"/>
<feOffset dy="1"/>
<feComposite in2="hardAlpha" operator="arithmetic" k2="-1" k3="1"/>
<feColorMatrix type="matrix" values="0 0 0 0 0.925844 0 0 0 0 0.383333 0 0 0 0 1 0 0 0 1 0"/>
<feBlend mode="normal" in2="shape" result="effect1_innerShadow_296_3"/>
</filter>
<filter id="filter2_i_296_3" x="1110.9" y="142.773" width="139.544" height="214.753" filterUnits="userSpaceOnUse" color-interpolation-filters="sRGB">
<feFlood flood-opacity="0" result="BackgroundImageFix"/>
<feBlend mode="normal" in="SourceGraphic" in2="BackgroundImageFix" result="shape"/>
<feColorMatrix in="SourceAlpha" type="matrix" values="0 0 0 0 0 0 0 0 0 0 0 0 0 0 0 0 0 0 127 0" result="hardAlpha"/>
<feOffset dy="1"/>
<feComposite in2="hardAlpha" operator="arithmetic" k2="-1" k3="1"/>
<feColorMatrix type="matrix" values="0 0 0 0 0.925844 0 0 0 0 0.383333 0 0 0 0 1 0 0 0 1 0"/>
<feBlend mode="normal" in2="shape" result="effect1_innerShadow_296_3"/>
</filter>
<filter id="filter3_i_296_3" x="423.16" y="140.173" width="205.045" height="303.516" filterUnits="userSpaceOnUse" color-interpolation-filters="sRGB">
<feFlood flood-opacity="0" result="BackgroundImageFix"/>
<feBlend mode="normal" in="SourceGraphic" in2="BackgroundImageFix" result="shape"/>
<feColorMatrix in="SourceAlpha" type="matrix" values="0 0 0 0 0 0 0 0 0 0 0 0 0 0 0 0 0 0 127 0" result="hardAlpha"/>
<feOffset dy="1"/>
<feComposite in2="hardAlpha" operator="arithmetic" k2="-1" k3="1"/>
<feColorMatrix type="matrix" values="0 0 0 0 0.925844 0 0 0 0 0.383333 0 0 0 0 1 0 0 0 1 0"/>
<feBlend mode="normal" in2="shape" result="effect1_innerShadow_296_3"/>
</filter>
<filter id="filter4_i_296_3" x="777.327" y="140.173" width="185.485" height="260.156" filterUnits="userSpaceOnUse" color-interpolation-filters="sRGB">
<feFlood flood-opacity="0" result="BackgroundImageFix"/>
<feBlend mode="normal" in="SourceGraphic" in2="BackgroundImageFix" result="shape"/>
<feColorMatrix in="SourceAlpha" type="matrix" values="0 0 0 0 0 0 0 0 0 0 0 0 0 0 0 0 0 0 127 0" result="hardAlpha"/>
<feOffset dy="1"/>
<feComposite in2="hardAlpha" operator="arithmetic" k2="-1" k3="1"/>
<feColorMatrix type="matrix" values="0 0 0 0 0.925844 0 0 0 0 0.383333 0 0 0 0 1 0 0 0 1 0"/>
<feBlend mode="normal" in2="shape" result="effect1_innerShadow_296_3"/>
</filter>
<filter id="filter5_i_296_3" x="598.5" y="142.222" width="229.602" height="275.451" filterUnits="userSpaceOnUse" color-interpolation-filters="sRGB">
<feFlood flood-opacity="0" result="BackgroundImageFix"/>
<feBlend mode="normal" in="SourceGraphic" in2="BackgroundImageFix" result="shape"/>
<feColorMatrix in="SourceAlpha" type="matrix" values="0 0 0 0 0 0 0 0 0 0 0 0 0 0 0 0 0 0 127 0" result="hardAlpha"/>
<feOffset dy="1"/>
<feComposite in2="hardAlpha" operator="arithmetic" k2="-1" k3="1"/>
<feColorMatrix type="matrix" values="0 0 0 0 0.925844 0 0 0 0 0.383333 0 0 0 0 1 0 0 0 1 0"/>
<feBlend mode="normal" in2="shape" result="effect1_innerShadow_296_3"/>
</filter>
<filter id="filter6_i_296_3" x="952.892" y="142.596" width="157.195" height="227.648" filterUnits="userSpaceOnUse" color-interpolation-filters="sRGB">
<feFlood flood-opacity="0" result="BackgroundImageFix"/>
<feBlend mode="normal" in="SourceGraphic" in2="BackgroundImageFix" result="shape"/>
<feColorMatrix in="SourceAlpha" type="matrix" values="0 0 0 0 0 0 0 0 0 0 0 0 0 0 0 0 0 0 127 0" result="hardAlpha"/>
<feOffset dy="1"/>
<feComposite in2="hardAlpha" operator="arithmetic" k2="-1" k3="1"/>
<feColorMatrix type="matrix" values="0 0 0 0 0.925844 0 0 0 0 0.383333 0 0 0 0 1 0 0 0 1 0"/>
<feBlend mode="normal" in2="shape" result="effect1_innerShadow_296_3"/>
</filter>
<linearGradient id="paint0_linear_296_3" x1="1270.49" y1="71.2117" x2="1263.79" y2="502.998" gradientUnits="userSpaceOnUse">
<stop stop-color="#76CDFF"/>
<stop offset="0.134253" stop-color="#0066FF"/>
<stop offset="0.644767" stop-color="#096EFF"/>
<stop offset="1" stop-color="#76CDFF"/>
</linearGradient>
<linearGradient id="paint1_linear_296_3" x1="1365.63" y1="143.01" x2="1365.63" y2="373.734" gradientUnits="userSpaceOnUse">
<stop stop-color="#DC79EA" stop-opacity="0.916667"/>
<stop offset="0.0417667" stop-color="#EC61FF"/>
<stop offset="0.119792" stop-color="#EC61FF"/>
<stop offset="0.322917" stop-color="#BF2CD7"/>
<stop offset="0.864583" stop-color="#5F028B"/>
</linearGradient>
<linearGradient id="paint2_linear_296_3" x1="339.295" y1="140.173" x2="339.295" y2="516.08" gradientUnits="userSpaceOnUse">
<stop stop-color="#DC79EA" stop-opacity="0.916667"/>
<stop offset="0.0417667" stop-color="#EC61FF"/>
<stop offset="0.119792" stop-color="#EC61FF"/>
<stop offset="0.322917" stop-color="#BF2CD7"/>
<stop offset="0.864583" stop-color="#5F028B"/>
</linearGradient>
<linearGradient id="paint3_linear_296_3" x1="1215.9" y1="142.099" x2="1222.09" y2="354.56" gradientUnits="userSpaceOnUse">
<stop offset="0.119792" stop-color="#EC61FF"/>
<stop offset="0.526042" stop-color="#BF2CD7"/>
<stop offset="1" stop-color="#5F028B"/>
</linearGradient>
<linearGradient id="paint4_linear_296_3" x1="522.893" y1="140.173" x2="522.893" y2="462.94" gradientUnits="userSpaceOnUse">
<stop offset="0.119792" stop-color="#EC61FF"/>
<stop offset="0.526042" stop-color="#BF2CD7"/>
<stop offset="1" stop-color="#5F028B"/>
</linearGradient>
<linearGradient id="paint5_linear_296_3" x1="866.023" y1="140.173" x2="866.023" y2="416.83" gradientUnits="userSpaceOnUse">
<stop offset="0.119792" stop-color="#EC61FF"/>
<stop offset="0.526042" stop-color="#BF2CD7"/>
<stop offset="1" stop-color="#5F028B"/>
</linearGradient>
<linearGradient id="paint6_linear_296_3" x1="737.967" y1="142.222" x2="737.967" y2="403.294" gradientUnits="userSpaceOnUse">
<stop offset="0.119792" stop-color="#EC61FF"/>
<stop offset="0.526042" stop-color="#BF2CD7"/>
<stop offset="1" stop-color="#5F028B"/>
</linearGradient>
<linearGradient id="paint7_linear_296_3" x1="1058.8" y1="141.996" x2="1068" y2="368.797" gradientUnits="userSpaceOnUse">
<stop offset="0.119792" stop-color="#EC61FF"/>
<stop offset="0.526042" stop-color="#BF2CD7"/>
<stop offset="1" stop-color="#5F028B"/>
</linearGradient>
</defs>
</svg>
