<svg width="40" height="40" viewBox="0 0 40 40" fill="none" xmlns="http://www.w3.org/2000/svg">
<g filter="url(#filter0_i_3051_42)">
<rect width="40" height="40" rx="20" fill="#00ADEC"/>
</g>
<path d="M13.3776 19.3823L24.162 15.0454C24.5982 14.8699 25.0628 15.2284 24.993 15.6867L23.6527 24.4905C23.5876 24.918 23.0965 25.1381 22.7255 24.906L18.4397 22.2249C18.1068 22.0167 18.0609 21.5567 18.3463 21.2889L21.4588 18.3683C21.6741 18.1663 21.4025 17.834 21.1555 17.9971L16.3861 21.1464C16.2355 21.2459 16.0475 21.274 15.8736 21.223L13.434 20.5076C12.8846 20.3465 12.847 19.5957 13.3776 19.3823Z" fill="white"/>
<g clip-path="url(#clip0_3051_42)">
<path d="M29.1922 29.192C25.5094 32.8715 19.9881 34.0023 15.1554 32.0667C14.695 31.8829 14.4708 31.3608 14.6545 30.9005C14.8382 30.4402 15.3604 30.216 15.8206 30.3997C15.8219 30.4002 15.8232 30.4008 15.8245 30.4013C17.1518 30.9345 18.5694 31.2074 19.9999 31.2048C26.1783 31.2048 31.2048 26.1783 31.2048 19.9998C31.1958 16.0113 29.0762 12.3255 25.6334 10.3117C25.2041 10.0639 25.0569 9.51507 25.3047 9.08582C25.5525 8.65657 26.1013 8.50941 26.5306 8.75717C26.5328 8.75844 26.535 8.75971 26.5372 8.76103C30.5397 11.0885 33.0016 15.3698 32.9997 19.9998C33.0091 23.4495 31.6381 26.7595 29.1922 29.192Z" fill="white"/>
<path d="M8.91765 24.9526C9.35335 24.7171 9.89751 24.8793 10.133 25.315C10.1332 25.3152 10.1333 25.3155 10.1334 25.3158C10.9359 26.7961 12.0586 28.0787 13.4196 29.0702C13.8216 29.3601 13.9126 29.9209 13.6227 30.323C13.3329 30.7251 12.772 30.816 12.3699 30.5261C12.368 30.5248 12.3662 30.5235 12.3644 30.5221C10.7863 29.3725 9.48462 27.8852 8.55416 26.1687C8.31874 25.7325 8.48145 25.1881 8.91765 24.9526Z" fill="white"/>
<path d="M9.22021 16.931C8.71875 18.7071 8.65989 20.5789 9.04877 22.3829C9.15114 22.8678 8.84103 23.344 8.35612 23.4463C7.87467 23.548 7.4012 23.243 7.29461 22.7627C6.84342 20.6708 6.91177 18.5002 7.49367 16.4408C7.6291 15.964 8.12538 15.6873 8.60216 15.8228C9.07893 15.9582 9.35564 16.4545 9.22021 16.9312V16.931Z" fill="white"/>
<path d="M13.7688 10.6857C12.3138 11.6633 11.1059 12.9656 10.2406 14.49C10.002 14.9244 9.45639 15.0832 9.02196 14.8446C8.58753 14.6059 8.42879 14.0603 8.66741 13.6259C8.67107 13.6193 8.67482 13.6127 8.67863 13.6061C9.6819 11.8385 11.0822 10.3284 12.7692 9.19486C13.1809 8.91887 13.7384 9.02891 14.0143 9.44059C14.2903 9.85227 14.1803 10.4097 13.7686 10.6857H13.7688Z" fill="white"/>
<path d="M23.2854 9.28404C20.8351 8.53721 18.2034 8.64807 15.8246 9.59832C15.3647 9.78312 14.842 9.56009 14.6572 9.10022C14.4724 8.6403 14.6955 8.11767 15.1553 7.93288C17.9149 6.82972 20.9682 6.70094 23.8109 7.56781C24.2849 7.71294 24.5514 8.21476 24.4063 8.68869C24.2612 9.16263 23.7593 9.42917 23.2854 9.28404Z" fill="white"/>
</g>
<defs>
<filter id="filter0_i_3051_42" x="0" y="0" width="40" height="40" filterUnits="userSpaceOnUse" color-interpolation-filters="sRGB">
<feFlood flood-opacity="0" result="BackgroundImageFix"/>
<feBlend mode="normal" in="SourceGraphic" in2="BackgroundImageFix" result="shape"/>
<feColorMatrix in="SourceAlpha" type="matrix" values="0 0 0 0 0 0 0 0 0 0 0 0 0 0 0 0 0 0 127 0" result="hardAlpha"/>
<feOffset dx="-1" dy="1"/>
<feComposite in2="hardAlpha" operator="arithmetic" k2="-1" k3="1"/>
<feColorMatrix type="matrix" values="0 0 0 0 1 0 0 0 0 1 0 0 0 0 1 0 0 0 0.25 0"/>
<feBlend mode="normal" in2="shape" result="effect1_innerShadow_3051_42"/>
</filter>
<clipPath id="clip0_3051_42">
<rect width="26" height="26" fill="white" transform="matrix(1 0 0 -1 7 33)"/>
</clipPath>
</defs>
</svg>
