<svg width="40" height="40" viewBox="0 0 40 40" fill="none" xmlns="http://www.w3.org/2000/svg">
<g filter="url(#filter0_i_3051_38)">
<circle cx="20" cy="20" r="20" fill="#E32A2A"/>
</g>
<path fill-rule="evenodd" clip-rule="evenodd" d="M34.1533 15.1825L32.0993 15.9343C31.9062 16.0049 31.7291 16.1113 31.5777 16.2474L24.8811 22.2707L38.153 23.9688H14.5205L18.9394 23.1898C19.1996 23.1439 19.4439 23.0361 19.6504 22.876L28.0198 16.3879L19.303 15.4804L34.1533 15.1825ZM24.8564 15.7128L28.9135 16.1352L19.8718 23.1445C19.6194 23.3402 19.3208 23.4719 19.0028 23.528L18.4525 23.625H32.7564L24.0873 22.5158L31.3366 15.9954C31.5216 15.829 31.7381 15.6991 31.9741 15.6127L32.0974 15.5675L24.8564 15.7128Z" fill="white"/>
<path d="M28.4044 20.9032C28.3125 20.8969 28.3886 20.8969 28.3125 20.8969C27.9275 20.8969 27.3064 20.8852 26.9504 20.8696C26.9286 20.8645 26.9191 20.8548 26.9162 20.8357C26.8545 20.4198 26.8705 20.2403 26.8074 19.8249C26.7642 19.5402 26.7193 19.256 26.675 18.9716C26.6739 18.9644 26.6713 18.9578 26.6645 18.952C26.6489 19.0751 26.6334 19.1982 26.6178 19.3213C26.561 19.7676 26.5044 20.2138 26.4473 20.6602C26.4398 20.7184 26.4618 20.7634 26.4944 20.8038C26.5698 20.8969 26.4846 20.8188 26.5926 20.8852C26.6032 20.8917 26.5563 20.8761 26.5711 20.8852C26.2552 20.8852 26.2717 20.8852 25.9649 20.8852C25.6581 20.8852 25.3622 20.8726 25.0443 20.8726C25.0618 20.8688 25.0709 20.8674 25.0799 20.8649C25.1704 20.8407 25.2617 20.8215 25.3511 20.7905C25.4436 20.7583 25.4871 20.706 25.498 20.6316C25.5396 20.3488 25.6339 19.9242 25.6757 19.6414C25.7487 19.1483 25.8223 18.6551 25.8961 18.1619C25.9235 17.9789 25.9519 17.7957 25.9803 17.6126C26.0061 17.4461 26.0322 17.2796 26.059 17.113C26.0673 17.0613 26.0515 17.0208 26.0174 16.988C25.9635 16.936 25.8918 16.901 25.8165 16.8695C25.7994 16.8624 25.7847 16.8526 25.7688 16.844C25.7705 16.8415 25.7722 16.839 25.774 16.8366C25.784 16.8358 25.7941 16.8344 25.8038 16.8344C26.1766 16.8366 26.5491 16.8393 26.9223 16.8405C26.9548 16.8406 26.9643 16.8511 26.968 16.8748C27.0087 17.13 27.0502 17.385 27.093 17.6394C27.1589 18.031 27.2258 18.4222 27.2924 18.8135C27.2938 18.8215 27.2964 18.829 27.3042 18.8354C27.3104 18.7818 27.3168 18.7281 27.3229 18.6745C27.3604 18.3476 27.3973 18.0209 27.4357 17.6938C27.4561 17.5197 27.4762 17.3455 27.5021 17.1705C27.5157 17.0787 27.4797 17.0148 27.407 16.9696C27.3527 16.9358 27.292 16.9081 27.2346 16.8771C27.2246 16.8717 27.2172 16.8637 27.215 16.8513C27.6967 16.8552 28.1784 16.8592 28.6728 16.8632C28.6422 16.884 28.6208 16.9005 28.5976 16.914C28.5369 16.9492 28.4739 16.9814 28.4143 17.0181C28.3542 17.0552 28.3252 17.1012 28.32 17.1552C28.2551 17.8284 28.1889 18.5019 28.123 19.1753C28.0648 19.771 28.0764 19.8762 28.043 20.4682C28.037 20.5284 28.0789 20.6274 28.1094 20.6724C28.1821 20.7792 28.2764 20.8093 28.3892 20.8852C28.3993 20.892 28.3985 20.8902 28.4087 20.8969C28.4074 20.899 28.4059 20.9011 28.4044 20.9032Z" fill="white"/>
<path d="M4.07739 23.6532C4.13183 23.6233 4.19575 23.5895 4.25792 23.5535C4.4436 23.4458 4.62635 23.335 4.7817 23.1947C4.86506 23.1195 4.92278 23.0336 4.95158 22.9314C5.21475 21.9975 5.2898 21.6394 5.55474 20.7058C5.8425 19.6916 6.13097 18.6776 6.41909 17.6634C6.45491 17.5373 6.48898 17.4109 6.52469 17.2847C6.5481 17.2021 6.52703 17.1312 6.45936 17.0677C6.37659 16.9901 6.2786 16.9311 6.17031 16.8835C6.13436 16.8677 6.09842 16.8519 6.04937 16.8302C6.07571 16.8249 6.0873 16.8207 6.09889 16.8205C6.96663 16.8059 7.83438 16.7899 8.70213 16.7784C8.92796 16.7754 9.14934 16.8087 9.35797 16.8867C9.75461 17.035 9.9589 17.2976 9.98091 17.6649C9.99367 17.8764 9.94965 18.0827 9.90025 18.2889C9.83609 18.5563 9.78341 18.8258 9.71691 19.0926C9.59445 19.5842 9.26267 19.9507 8.7753 20.2209C8.34622 20.4588 7.87746 20.6033 7.37007 20.6574C7.27922 20.6671 7.18908 20.6808 7.09811 20.6889C7.05503 20.6927 7.0514 20.7173 7.04449 20.7434C6.95996 21.065 6.88932 21.2502 6.80468 21.5719C6.67414 22.0673 6.58954 22.2983 6.45936 22.7938C6.42705 22.9168 6.4624 22.9925 6.58463 23.0644C6.69936 23.1319 6.67087 23.1388 6.80468 23.1642C5.90111 23.2523 5.12519 23.4769 4.07739 23.6532ZM7.34724 19.5899C7.4807 19.5776 7.60234 19.5673 7.72363 19.5548C8.00695 19.5258 8.19087 19.336 8.23735 19.1253C8.28862 18.893 8.35208 18.6628 8.40862 18.4313C8.43649 18.3174 8.47055 18.2037 8.48437 18.0884C8.50521 17.9157 8.39738 17.8196 8.19438 17.8183C8.0951 17.8177 7.99571 17.8275 7.89643 17.8267C7.83368 17.8262 7.80582 17.8431 7.79177 17.8984C7.68921 18.2998 7.58232 18.7003 7.47661 19.1012C7.43481 19.26 7.39255 19.4188 7.34724 19.5899Z" fill="white"/>
<path d="M24.3323 16.8311C24.6232 16.825 24.8502 16.8378 25.0535 16.9013C25.3769 17.0022 25.5522 17.2076 25.5592 17.5218C25.5629 17.6882 25.5406 17.8613 25.5253 18.0323C25.46 18.7611 25.3928 19.4903 25.3268 20.2193C25.3146 20.3536 25.2837 20.4881 25.2015 20.6236C25.1097 20.7752 24.9711 20.8865 24.7898 20.953C24.5782 21.0307 24.1846 21.0873 23.9827 21.0861C23.6115 21.0838 23.4858 21.0965 23.1869 20.9665C22.9783 20.8758 22.8315 20.8047 22.7702 20.6026C22.7305 20.4716 22.6772 20.2421 22.7282 19.9774C22.7607 19.7685 22.7867 19.5903 22.8166 19.3818C22.8507 19.1429 22.8849 18.904 22.9198 18.665C22.9575 18.4067 22.9922 18.1487 23.0359 17.8896C23.0589 17.7528 23.087 17.614 23.1327 17.476C23.2198 17.214 23.4403 17.0407 23.7374 16.933C23.9589 16.8528 24.1743 16.8357 24.3323 16.8311ZM24.3264 17.4747C24.3088 17.4752 24.2912 17.4749 24.2734 17.4763C24.1556 17.4855 24.0696 17.5486 24.0388 17.6493C24.032 17.6716 24.0279 17.694 24.0249 17.7159C24.0139 17.7973 24.0038 17.8785 23.9934 17.9597C23.9504 18.2985 23.9065 18.6375 23.8645 18.9761C23.8215 19.323 23.7802 19.6697 23.7384 20.0165C23.7293 20.092 23.7148 20.1685 23.7414 20.2356C23.7864 20.3492 23.9722 20.3834 24.1201 20.3618C24.227 20.3461 24.2906 20.2907 24.3118 20.2C24.3196 20.1666 24.3244 20.1332 24.3279 20.1003C24.3539 19.8611 24.3778 19.6223 24.405 19.383C24.4683 18.8245 24.5336 18.2657 24.5961 17.7074C24.6008 17.6657 24.5979 17.6227 24.5842 17.587C24.548 17.4926 24.447 17.4704 24.3264 17.4747Z" fill="white"/>
<path d="M12.8408 22.2782C12.1889 22.3641 11.586 22.3469 11.074 22.4866C11.0725 22.4844 11.0708 22.4822 11.0693 22.4799C11.0848 22.47 11.1001 22.4597 11.1158 22.4501C11.2561 22.3632 11.3862 22.2617 11.4897 22.1234C11.5653 22.0225 11.6006 21.9118 11.586 21.7747C11.5368 21.3165 11.505 21.1504 11.4608 20.6916C11.4295 20.3682 11.3969 20.045 11.3673 19.7213C11.3416 19.4381 11.3194 19.1545 11.2954 18.8711C11.2932 18.8454 11.289 18.82 11.2753 18.7924C10.9433 19.687 10.6113 20.5817 10.2763 21.4848C10.5608 21.4543 10.8383 21.4246 11.1158 21.3948C11.1164 21.3981 11.1171 21.4014 11.1178 21.4047C11.0316 21.4608 10.9441 21.5143 10.8596 21.5733C10.4502 21.859 10.3198 21.8157 10.0721 22.2818C10.0285 22.3639 9.9951 22.4524 9.95358 22.536C9.9429 22.5575 9.92109 22.5833 9.90159 22.5866C9.52814 22.5866 9.07229 22.7276 8.70077 22.7888C8.68667 22.7911 8.67235 22.7916 8.64966 22.7938C8.7011 22.6555 8.63038 22.8528 8.67917 22.7221C8.96401 21.9602 9.21887 21.2518 9.50337 20.4897C9.78303 19.7407 10.0621 18.9916 10.3411 18.2422C10.4571 17.9306 10.5692 17.6171 10.6889 17.307C10.7307 17.1984 10.7161 17.1086 10.6389 17.0386C10.5658 16.9725 10.4822 16.9205 10.4026 16.8634C10.3822 16.8487 10.3594 16.8381 10.3377 16.8257C10.3389 16.8197 10.3403 16.8139 10.3415 16.8079C11.1385 16.798 11.9355 16.7881 12.7324 16.7782C12.735 16.7853 12.7377 16.7924 12.7403 16.7995C12.7253 16.8113 12.7112 16.8252 12.6951 16.8346C12.611 16.8839 12.5259 16.9312 12.4419 16.9809C12.4212 16.9932 12.4038 17.0125 12.3851 17.0288C12.3233 17.0823 12.2973 17.143 12.3071 17.2384C12.3745 17.897 12.4312 18.5567 12.4989 19.2153C12.5712 19.9202 12.6503 20.6243 12.7295 21.3283C12.7733 21.7176 12.7879 21.8255 12.8351 22.2143C12.8374 22.2346 12.8387 22.2547 12.8408 22.2782Z" fill="white"/>
<path d="M19.6803 21.5266C19.1398 21.5307 18.5138 21.6766 18.0585 21.7354C18.0571 21.7336 18.0557 21.7317 18.0543 21.7297C18.0681 21.7212 18.0817 21.7124 18.0956 21.7041C18.2204 21.6297 18.3361 21.5426 18.4282 21.4241C18.4954 21.3376 18.5268 21.2427 18.5138 21.1252C18.47 20.7325 18.4283 20.5258 18.3889 20.1326C18.3611 19.8554 18.3321 19.5783 18.3058 19.3009C18.2829 19.0581 18.2632 18.8151 18.2419 18.5721C18.2399 18.5501 18.2362 18.5283 18.2239 18.5047C17.9287 19.2714 17.6335 20.0383 17.3355 20.8124C17.5885 20.7863 17.8354 20.7608 18.0821 20.7353C18.0827 20.7381 18.0833 20.7409 18.0839 20.7437C18.0073 20.7918 17.9294 20.8377 17.8543 20.8883C17.4902 21.1332 17.3294 21.2303 17.1091 21.6298C17.0703 21.7002 17.0406 21.7761 17.0037 21.8477C17.0037 21.8477 16.9748 21.8883 16.9575 21.8911C16.6254 21.8911 16.2672 21.9166 15.9344 21.9302C15.9218 21.9321 15.9091 21.9326 15.8889 21.9344C15.9347 21.8159 15.8718 21.985 15.9152 21.873C16.1685 21.2199 16.3951 20.6127 16.6481 19.9595C16.8969 19.3175 17.1451 18.6754 17.3932 18.0331C17.4963 17.7659 17.5961 17.4972 17.7024 17.2314C17.7397 17.1383 17.7266 17.0614 17.658 17.0014C17.593 16.9447 17.5187 16.9002 17.4479 16.8512C17.4297 16.8386 17.4095 16.8295 17.3902 16.8189C17.3912 16.8138 17.3924 16.8088 17.3935 16.8036C18.1023 16.7952 18.8111 16.7867 19.5198 16.7782C19.5221 16.7843 19.5245 16.7903 19.5268 16.7964C19.5135 16.8066 19.501 16.8185 19.4867 16.8266C19.4118 16.8688 19.3361 16.9093 19.2615 16.9519C19.2431 16.9625 19.2276 16.9791 19.2109 16.993C19.156 17.0389 19.1329 17.0909 19.1416 17.1727C19.2015 17.7371 19.252 18.3027 19.3121 18.8671C19.3765 19.4714 19.4229 19.8701 19.4933 20.4735C19.5323 20.8072 19.6332 21.1386 19.6752 21.4719C19.6772 21.4892 19.6784 21.5065 19.6803 21.5266Z" fill="white"/>
<path d="M16.9222 21.9196C16.8739 21.9196 16.8257 21.918 16.7773 21.9199C16.2772 21.9199 15.7263 22.0016 15.1952 22.0477C15.1524 22.0495 15.1359 22.039 15.1269 22.0016C14.9701 21.3517 14.8155 20.4697 14.6575 19.82C14.6506 19.7919 14.6506 19.7615 14.64 19.7349C14.6322 19.7152 14.6159 19.689 14.597 19.6854C14.554 19.6771 14.5557 19.7145 14.5514 19.7379C14.513 19.9436 14.4767 20.1494 14.4378 20.3549C14.3677 20.7258 14.2794 21.3907 14.2049 21.7613C14.1863 21.8541 14.2136 21.9258 14.2949 21.9661C14.4047 22.0205 14.5244 22.0605 14.64 22.1063C14.654 22.1119 14.6676 22.135 14.6812 22.1497C13.8653 22.163 13.0313 22.1923 12.2381 22.2782C12.2366 22.276 12.2352 22.2738 12.2337 22.2716C12.2541 22.2626 12.2749 22.2543 12.2949 22.2446C12.4366 22.176 12.5805 22.1107 12.7192 22.0368C12.8056 21.9908 12.8493 21.9174 12.8682 21.8277C13.0425 20.9993 13.2386 19.8863 13.4147 19.058C13.4888 18.7098 13.5604 18.3614 13.6342 18.0132C13.6904 17.7477 13.7472 17.4822 13.8061 17.217C13.8212 17.1489 13.81 17.088 13.755 17.0483C13.6702 16.9869 13.5772 16.9341 13.4866 16.879C13.4629 16.8646 13.4356 16.8548 13.3953 16.8362C13.4252 16.8306 13.4382 16.8261 13.4508 16.8261C14.1747 16.8232 14.8989 16.8161 15.6222 16.8199C15.9242 16.8216 16.2087 16.8795 16.4536 17.0337C16.6917 17.1836 16.8006 17.3951 16.7921 17.6604C16.7871 17.8162 16.7612 17.9732 16.7406 18.1295C16.7184 18.2989 16.6962 18.4684 16.6656 18.6373C16.5942 19.0329 16.3345 19.2949 15.9143 19.4383C15.8456 19.4618 15.7759 19.4824 15.6998 19.5064C15.7366 19.606 15.77 19.7047 15.809 19.8012C16.0157 20.3132 16.2139 20.9913 16.4171 21.5048C16.4929 21.6962 16.64 21.8121 16.8498 21.8745C16.8757 21.8822 16.9012 21.8912 16.9268 21.8996C16.9253 21.9063 16.9238 21.9129 16.9222 21.9196ZM14.7011 18.9393C14.8631 18.9263 15.0196 18.9504 15.1756 18.8941C15.2972 18.8503 15.3791 18.7733 15.4004 18.6576C15.4483 18.3969 15.4951 18.1362 15.5361 17.8752C15.5573 17.7403 15.4919 17.6549 15.3441 17.6359C15.2269 17.6208 15.1041 17.6276 14.9835 17.6278C14.9718 17.6278 14.9494 17.6487 14.9465 17.6613C14.9192 17.7838 14.8936 17.9065 14.8701 18.0293C14.816 18.3136 14.7634 18.5981 14.7103 18.8824C14.7073 18.8987 14.705 18.9148 14.7011 18.9393Z" fill="white"/>
<path d="M21.1994 18.7343C21.2295 18.7332 21.2438 18.7323 21.258 18.7321C21.6915 18.7267 22.1247 18.722 22.5586 18.7149C22.6059 18.7141 22.617 18.7272 22.6146 18.7663C22.5893 19.1802 22.5667 19.5936 22.5425 20.0074C22.5333 20.1647 22.5298 20.3216 22.5095 20.4801C22.4685 20.7989 22.3083 21.0316 21.9662 21.1754C21.8643 21.2182 21.7565 21.2503 21.6507 21.2748C21.4072 21.3313 21.1686 21.3413 20.9329 21.3374C20.6789 21.3331 20.4316 21.3117 20.2008 21.2506C20.0487 21.2104 19.905 21.1585 19.7825 21.0784C19.5417 20.9211 19.4513 20.6896 19.4839 20.4067C19.5495 19.8359 19.6248 19.264 19.6959 18.6926C19.7223 18.4798 19.7455 18.2675 19.7754 18.0544C19.7941 17.9211 19.8151 17.787 19.8479 17.6531C19.9382 17.2842 20.2483 17.0383 20.6484 16.931C21.0841 16.8143 21.5078 16.787 21.8967 16.8903C22.2799 16.992 22.5491 17.1977 22.6683 17.531C22.7045 17.6323 22.688 17.7435 22.6784 17.8541C22.6648 18.0104 22.6562 18.166 22.6453 18.3219C22.6441 18.3387 22.6417 18.3557 22.6399 18.3738C22.1708 18.382 21.7071 18.39 21.2337 18.3982C21.2926 18.3619 21.3432 18.3335 21.3905 18.301C21.4928 18.2307 21.5463 18.1473 21.5474 18.0444C21.5483 17.9619 21.5618 17.877 21.5727 17.7929C21.5934 17.6327 21.5165 17.5483 21.3334 17.5405C21.2778 17.5382 21.2191 17.5418 21.1614 17.5508C21.0287 17.5715 20.9428 17.6464 20.9241 17.7591C20.9084 17.8546 20.8998 17.9496 20.8901 18.0446C20.8395 18.5387 20.7891 19.0327 20.7395 19.5266C20.7112 19.8084 20.6835 20.0901 20.6574 20.3716C20.6445 20.5111 20.7126 20.5948 20.8667 20.6158C20.9424 20.626 21.0247 20.6258 21.1056 20.6176C21.2415 20.6039 21.3249 20.5307 21.3415 20.4146C21.359 20.2923 21.3709 20.1703 21.3816 20.0487C21.4043 19.7896 21.4182 19.5316 21.4475 19.2718C21.472 19.0542 21.3922 18.89 21.2304 18.7605C21.223 18.7551 21.2165 18.749 21.1994 18.7343Z" fill="white"/>
<defs>
<filter id="filter0_i_3051_38" x="0" y="0" width="40" height="40" filterUnits="userSpaceOnUse" color-interpolation-filters="sRGB">
<feFlood flood-opacity="0" result="BackgroundImageFix"/>
<feBlend mode="normal" in="SourceGraphic" in2="BackgroundImageFix" result="shape"/>
<feColorMatrix in="SourceAlpha" type="matrix" values="0 0 0 0 0 0 0 0 0 0 0 0 0 0 0 0 0 0 127 0" result="hardAlpha"/>
<feOffset dx="-1" dy="1"/>
<feComposite in2="hardAlpha" operator="arithmetic" k2="-1" k3="1"/>
<feColorMatrix type="matrix" values="0 0 0 0 1 0 0 0 0 1 0 0 0 0 1 0 0 0 0.25 0"/>
<feBlend mode="normal" in2="shape" result="effect1_innerShadow_3051_38"/>
</filter>
</defs>
</svg>
